<svg xmlns="http://www.w3.org/2000/svg" width="102.416" height="81.809" viewBox="0 0 102.416 81.809">
  <g id="jISrC4" transform="translate(0 0)">
    <g id="Group_13" data-name="Group 13" transform="translate(0 0)">
      <path id="Path_41" data-name="Path 41" d="M-345,11.348c-.661-3.582,1.487-4.952,4.046-6.368,5.158-2.853,10.149-6.005,15.229-9,1.621-.956,1.906-.773,1.828,1.134-.067,1.647-.239,3.29-.373,4.934-.1,1.229.1,1.915,1.5,1.025,1.543-.977,3.134-1.88,4.725-2.78,1.14-.645,2.427-1.131,3.28.264.915,1.5-.184,2.4-1.366,3.116-1.568.943-3.162,1.841-4.731,2.783-.376.225-.994.324-.9.936.071.459.584.545.948.708,1.616.723,3.247,1.414,4.86,2.143.464.21,1.071.359,1.037,1.046-.027.555-.524.742-.926.98-5.74,3.4-11.5,6.763-17.209,10.2a3.419,3.419,0,0,1-3.795.252,18.054,18.054,0,0,0-2.172-.872c4.618,13.078,3.624,25.427-3.661,36.993A38.413,38.413,0,0,1-364.31,75.358a40.29,40.29,0,0,1-47.145-18.414,40.028,40.028,0,0,1,8.79-50.612,38.856,38.856,0,0,1,29.71-9.458C-361.794-2.149-352.608,2.821-345,11.348ZM-376.6.449a22.417,22.417,0,0,0-6.335.669c-10.845,1.995-19.335,7.709-24.884,17.106-6.892,11.671-7.364,23.88-.783,35.919,6.473,11.841,16.745,18.19,30.135,19.126A36.338,36.338,0,0,0-342.222,49.6a36.2,36.2,0,0,0-.992-27.887c-.579-1.322-1.238-1.49-2.418-.737-1.789,1.142-3.61,2.248-5.487,3.236a1.8,1.8,0,0,0-.983,2.7,24.871,24.871,0,0,1,1.875,13c-2.4,18.064-20.013,27.274-34.824,21.96-10.685-3.834-17.715-13.1-17.775-24.814-.048-9.407,3.974-17.221,12.123-22.33A25.7,25.7,0,0,1-367.125,12.3a27.555,27.555,0,0,1,11.451,8.34c.743.865,1.29,1.133,2.322.474,1.936-1.238,3.937-2.378,5.941-3.505,1.016-.571,1.1-1.149.46-2.123a27.327,27.327,0,0,0-4.431-5.022A37.05,37.05,0,0,0-376.6.449Zm22.83,36.114c.187-2.6-.724-5.27-1.674-7.949-.415-1.169-1.009-1.274-1.99-.689q-4.178,2.492-8.392,4.924c-.839.482-.873,1.074-.667,1.93a10.465,10.465,0,0,1-3.738,10.376c-3.678,2.6-7.546,2.91-11.471.649a10.368,10.368,0,0,1-3.19-14.8,10.146,10.146,0,0,1,15.082-1.9c.632.532,1.169.954,2.02.452,2.845-1.676,5.708-3.321,8.559-4.986.942-.55.935-1.166.251-2a22.826,22.826,0,0,0-33.767-1.305,21.519,21.519,0,0,0-5.476,21.755c2.313,8.356,8.06,13.7,16.37,15.821C-367.617,62.466-353.742,51.468-353.768,36.563Zm-22.316-6.069c-3.74-.026-6.826,2.764-6.957,6.025a6.863,6.863,0,0,0,6.174,6.979,6.662,6.662,0,0,0,6.822-5.862c.046-.572.269-1.309-.235-1.676-.565-.412-1.072.228-1.576.485-.576.294-1.117.669-1.713.911a1.627,1.627,0,0,1-2.188-.569,1.921,1.921,0,0,1,.325-2.573,9.7,9.7,0,0,1,1.025-.684c.626-.471,1.892-.613,1.719-1.492-.182-.926-1.347-1.211-2.28-1.42A7.506,7.506,0,0,0-376.084,30.494Zm34.86-19.08c-.048,2.442.007,2.5,1.89,1.426,2.706-1.547,5.333-3.236,8.074-4.713,1.87-1.008,3.386-2.091,3.135-4.513-.046-.443.38-1-.047-1.327s-.881.13-1.272.358c-3.351,1.958-6.674,3.966-10.049,5.881C-340.759,9.246-341.513,10.115-341.224,11.415ZM-326.36,10a1.9,1.9,0,0,0-.646.121q-5.7,3.335-11.384,6.707c-.71.424-.253.761.2,1,1.692.89,3.309,1.655,5.18.174a34.739,34.739,0,0,1,4.245-2.507c1.676-.972,3.367-1.921,5.014-2.94.464-.287,1.388-.712.366-1.379A7.894,7.894,0,0,0-326.36,10Z" transform="translate(416.841 4.584)" fill="#eb3f21"/>
    </g>
  </g>
</svg>
