<svg xmlns="http://www.w3.org/2000/svg" width="71" height="68" viewBox="0 0 71 68">
  <g id="Group_22" data-name="Group 22" transform="translate(-147 -599)">
    <ellipse id="Ellipse_9" data-name="Ellipse 9" cx="35.5" cy="34" rx="35.5" ry="34" transform="translate(147 599)" fill="#eb3f21"/>
    <path id="Icon_ionic-md-arrow-round-forward" data-name="Icon ionic-md-arrow-round-forward" d="M17.228,27.123,28.84,15.856a2.561,2.561,0,0,0,.757-1.883v-.034a2.561,2.561,0,0,0-.757-1.883L17.228.788a2.486,2.486,0,0,0-3.632,0,2.781,2.781,0,0,0,0,3.8l6.979,6.676H2.581a2.693,2.693,0,0,0-.008,5.381H20.566l-6.979,6.676a2.781,2.781,0,0,0,0,3.8A2.5,2.5,0,0,0,17.228,27.123Z" transform="translate(196.755 617.958) rotate(90)" fill="#fff"/>
  </g>
</svg>
