<svg xmlns="http://www.w3.org/2000/svg" width="91.104" height="72.044" viewBox="0 0 91.104 72.044">
  <g id="Group_14" data-name="Group 14" transform="translate(0)">
    <path id="Path_42" data-name="Path 42" d="M3447.54,459.019V422.483a2.138,2.138,0,0,0-2.108-2.108h-76.144c-3.521,0-7.065-.118-10.585,0-.05,0-.1,0-.151,0a2.138,2.138,0,0,0-2.108,2.108q.026,9.156.051,18.312.041,14.569.081,29.138.009,3.312.018,6.623a2.115,2.115,0,0,0,2.108,2.108h31.025l-5.114,8.825-.989,1.706a2.128,2.128,0,0,0,1.82,3.172h33.165a2.126,2.126,0,0,0,1.82-3.172l-5.223-8.573c-1.41-2.313-5.057-.2-3.64,2.128l3.291,5.4H3389.1l5.113-8.824.385-.664h32.389c3.144,0,6.31.107,9.453,0,.044,0,.089,0,.133,0a2.147,2.147,0,0,0,.854-.167,11.1,11.1,0,0,0,6.887-3.589,12.938,12.938,0,0,0,3.223-8.565C3447.558,463.9,3447.54,461.46,3447.54,459.019Zm-4.215,6.629a9.8,9.8,0,0,1-.889,4.616,7.638,7.638,0,0,1-3.316,3.426,3.964,3.964,0,0,1-.947.4,8.194,8.194,0,0,1-1.228.3c.02-.01-.48.04-.462.039-.186.01-.372.011-.558.012h-67.636c-2.489,0-4.991-.065-7.485-.04q-.01-3.566-.02-7.132l6.164,0,18.46,0,22.5.006,19.371,0c3.132,0,6.286.108,9.417,0,.044,0,.089,0,.133,0,2.713,0,2.717-4.215,0-4.216l-7.763,0-18.46,0-22.5-.006-19.371,0c-2.648,0-5.311-.076-7.963-.036q-.006-2.391-.013-4.782-.04-14.569-.081-29.138-.007-2.257-.012-4.515h81.242c.468,0,.942.014,1.417.024v41.033Z" transform="translate(-3356.444 -420.323)" fill="#eb3f21"/>
    <ellipse id="Ellipse_27" data-name="Ellipse 27" cx="2.108" cy="2.108" rx="2.108" ry="2.108" transform="translate(43.494 48.357)" fill="#eb3f21"/>
    <ellipse id="Ellipse_28" data-name="Ellipse 28" cx="2.108" cy="2.108" rx="2.108" ry="2.108" transform="matrix(0.383, -0.924, 0.924, 0.383, 6.487, 10.503)" fill="#eb3f21"/>
    <ellipse id="Ellipse_29" data-name="Ellipse 29" cx="2.108" cy="2.108" rx="2.108" ry="2.108" transform="translate(13.673 7.619) rotate(-9.217)" fill="#eb3f21"/>
    <ellipse id="Ellipse_30" data-name="Ellipse 30" cx="2.108" cy="2.108" rx="2.108" ry="2.108" transform="matrix(0.383, -0.924, 0.924, 0.383, 20.54, 10.503)" fill="#eb3f21"/>
    <path id="Path_43" data-name="Path 43" d="M3521.717,530.69l5.272-5.272c1.921-1.921-1.059-4.9-2.981-2.981l-6.792,6.792a2.038,2.038,0,0,0,0,2.923l6.792,6.792c1.921,1.921,4.9-1.059,2.981-2.981Z" transform="translate(-3490.466 -505.256)" fill="#eb3f21"/>
    <path id="Path_44" data-name="Path 44" d="M3698.142,529.23l-6.792-6.792c-1.921-1.921-4.9,1.059-2.981,2.981l5.272,5.272-5.272,5.272c-1.921,1.921,1.059,4.9,2.981,2.981l6.792-6.792a2.038,2.038,0,0,0,0-2.923Z" transform="translate(-3633.689 -505.257)" fill="#eb3f21"/>
    <path id="Path_45" data-name="Path 45" d="M3615.446,528.864a2.124,2.124,0,0,0-2.884.756q-2.55,5.626-5.1,11.252a2.172,2.172,0,0,0,.756,2.884A2.124,2.124,0,0,0,3611.1,543l5.1-11.252A2.172,2.172,0,0,0,3615.446,528.864Z" transform="translate(-3566.296 -510.927)" fill="#eb3f21"/>
  </g>
</svg>
