<svg xmlns="http://www.w3.org/2000/svg" xmlns:xlink="http://www.w3.org/1999/xlink" width="170.741" height="47.154" viewBox="0 0 170.741 47.154">
  <defs>
    <linearGradient id="linear-gradient" x1="0.072" y1="0.962" x2="0.789" y2="0.188" gradientUnits="objectBoundingBox">
      <stop offset="0" stop-color="#f77f34"/>
      <stop offset="0.103" stop-color="#f36d2d"/>
      <stop offset="0.296" stop-color="#ef5324"/>
      <stop offset="0.493" stop-color="#eb401d"/>
      <stop offset="0.695" stop-color="#e93419"/>
      <stop offset="0.911" stop-color="#e93118"/>
    </linearGradient>
  </defs>
  <g id="Group_9" data-name="Group 9" transform="translate(0 0)">
    <path id="Path_20" data-name="Path 20" d="M47,33.7h-.041c-10.682.021-18.671,7.9-18.671,18.3,0,10.411,8.01,18.3,18.712,18.3,10.66,0,18.63-7.846,18.63-18.3S57.658,33.7,47,33.7ZM57.94,52a10.985,10.985,0,1,1-21.967,0A10.884,10.884,0,0,1,46.957,40.858H47A10.785,10.785,0,0,1,57.94,52Z" transform="translate(-28.286 -32.749)" fill="#e93118"/>
    <path id="Path_21" data-name="Path 21" d="M56.892,52H38.221V33.7h.041C48.922,33.7,56.892,41.546,56.892,52Z" transform="translate(-19.55 -32.749)" opacity="0.82" fill="url(#linear-gradient)"/>
    <path id="Path_22" data-name="Path 22" d="M78.377,56.451c0,8.077-5.847,14.129-14.01,14.129a13.541,13.541,0,0,1-9.513-3.714l-.712,3.058H49.95V33.315h5.54V45.45a13.629,13.629,0,0,1,8.876-3.131C72.53,42.319,78.377,48.336,78.377,56.451Zm-5.653,0a8.809,8.809,0,1,0-8.793,8.827A8.561,8.561,0,0,0,72.724,56.449Z" transform="translate(-9.237 -33.086)" fill="#fff"/>
    <path id="Path_23" data-name="Path 23" d="M67.685,33.315h5.538V69.924H67.685Z" transform="translate(6.358 -33.086)" fill="#fff"/>
    <path id="Path_24" data-name="Path 24" d="M74.246,33.193H79.97v5.715H74.246Zm.092,9.889H79.88v26.95H74.338Z" transform="translate(12.127 -33.193)" fill="#fff"/>
    <path id="Path_25" data-name="Path 25" d="M107.516,38.762V62.184c0,8.6-5.112,13.843-13.447,13.843-6.9,0-11.8-3.578-13.178-9.5h5.525c1.034,2.956,4.2,4.586,7.609,4.586,4.659,0,8.066-3.069,8.066-8.175V61.7a13.486,13.486,0,0,1-8.921,3.223,13.407,13.407,0,0,1,0-26.814A13.345,13.345,0,0,1,103,42.239l.881-3.477ZM93.8,59.78a8,8,0,0,0,8.271-8.243A8.29,8.29,0,1,0,93.8,59.78Z" transform="translate(17.057 -28.873)" fill="#fff"/>
    <path id="Path_26" data-name="Path 26" d="M126,38.749V65.7h-4.467l-.541-3.278a13.526,13.526,0,0,1-9.773,3.947A13.754,13.754,0,0,1,97.189,52.223,13.719,13.719,0,0,1,111.22,38.106a13.546,13.546,0,0,1,9.857,4.012l.648-3.37Zm-5.553,13.475a8.809,8.809,0,1,0-8.791,8.842A8.561,8.561,0,0,0,120.448,52.223Z" transform="translate(32.302 -28.873)" fill="#fff"/>
    <path id="Path_27" data-name="Path 27" d="M116.191,33.315h5.538V69.924h-5.538Z" transform="translate(49.011 -33.086)" fill="#fff"/>
  </g>
</svg>
