<svg xmlns="http://www.w3.org/2000/svg" width="90.418" height="89.432" viewBox="0 0 90.418 89.432">
  <g id="Group_17" data-name="Group 17" transform="translate(0 0)">
    <path id="Path_50" data-name="Path 50" d="M3292.776,502.451a5.173,5.173,0,1,0-3.657-1.515A5.139,5.139,0,0,0,3292.776,502.451Zm-.9-6.075a1.277,1.277,0,1,1,0,1.805,1.267,1.267,0,0,1,0-1.805Z" transform="translate(-3222.709 -476.927)" fill="#eb3f21"/>
    <path id="Path_51" data-name="Path 51" d="M2261.45,252.126,2240.929,231.6a1.948,1.948,0,0,0-2.755,0l-24.956,24.956-21.886-21.886a11.866,11.866,0,0,0-8.231-3.511,11.248,11.248,0,0,0-8.206,3.3,11.639,11.639,0,0,0,.214,16.437L2197,272.784l-23.8,23.8a1.948,1.948,0,0,0,0,2.755l20.521,20.521a1.948,1.948,0,0,0,2.755,0l13.645-13.645.032-.026.032-.039,6.951-6.951.025-.022.02-.023,3.1-3.1,14.455,14.455.01.009.016.015c.037.036.074.069.112.1l.03.024c.037.029.075.057.113.083l.027.019.005,0c.042.028.087.054.137.081l.045.024c.05.025.1.047.143.066l22.849,9.38a1.948,1.948,0,0,0,2.542-2.542l-9.378-22.841,0-.006c-.019-.047-.041-.094-.067-.144l-.022-.041c-.027-.051-.055-.1-.086-.146l-.015-.022c-.027-.04-.056-.08-.089-.12l-.019-.024c-.03-.036-.061-.071-.1-.108l-.008-.009-14.479-14.479,24.956-24.956A1.95,1.95,0,0,0,2261.45,252.126Zm-55.361,35.994a1.951,1.951,0,0,0,0,2.755l6.929,6.929-4.248,4.248-6.929-6.929a1.948,1.948,0,0,0-2.755,2.755l6.929,6.929-4.248,4.249-11.53-11.53a1.948,1.948,0,1,0-2.755,2.755l11.53,11.53-3.923,3.922-17.766-17.766,22.427-22.427,17.766,17.766-1.743,1.743-6.928-6.929A1.95,1.95,0,0,0,2206.09,288.119Zm-23.052-53.06a7.988,7.988,0,0,1,5.539,2.371l6.665,6.665-10.713,10.713-6.665-6.665a7.982,7.982,0,0,1-2.366-5.523,7.362,7.362,0,0,1,7.409-7.561Zm46.464,20.446a1.948,1.948,0,0,0,0,2.755l11.53,11.53-4.248,4.248-6.928-6.929a1.948,1.948,0,1,0-2.755,2.755l6.928,6.929-.289.289-17.766-17.766,23.579-23.579,17.766,17.766-13.531,13.532-11.53-11.53a1.948,1.948,0,0,0-2.755,0Zm19.379,43.611,6.5,15.83-15.83-6.5,4.482-4.482a1.9,1.9,0,0,0,.367-.367Zm-54.863-48.288,3.979-3.979,13.829,13.829.023.023.009.009,20.49,20.49,0,0,.031.032.01.009,14.427,14.427-3.979,3.979Zm27.656,41.124-.025-.025-.017-.017-20.475-20.475-.035-.035-.01-.01-13.828-13.828,3.979-3.979,48.82,48.821-3.979,3.979Z" transform="translate(-2171.603 -231.034)" fill="#eb3f21"/>
  </g>
</svg>
