<svg xmlns="http://www.w3.org/2000/svg" width="83.699" height="69.372" viewBox="0 0 83.699 69.372">
  <g id="Group_12" data-name="Group 12" transform="translate(0 0)">
    <path id="Path_36" data-name="Path 36" d="M185.924,262.614a2.1,2.1,0,0,1,3.836-1.713l6.162,13.8a3.938,3.938,0,0,0,1.551,1.837,2.088,2.088,0,0,0,1.616.217l1.495-.405c-.653-1.249-1.368-2.779-2.078-4.4-2.015-4.607-4.16-10.178-4.609-11.833a2.107,2.107,0,0,1,4.067-1.1c.418,1.544,2.463,6.839,4.394,11.257a43.521,43.521,0,0,0,2.771,5.718,2.107,2.107,0,0,1-.739,3.7l-4.2,1.139a6.2,6.2,0,0,1-4.811-.629,8.162,8.162,0,0,1-3.3-3.78Z" transform="translate(-177.109 -211.681)" fill="#eb3f21"/>
    <path id="Path_37" data-name="Path 37" d="M201.734,203.129l27.657-24.989a2.1,2.1,0,0,1,3.434,1.007l.008,0,12.489,46.046a2.107,2.107,0,0,1-2.489,2.609l-36.195-6.173a2.105,2.105,0,0,1-1.678-1.524h0l-4-14.735a2.108,2.108,0,0,1,.772-2.24Zm27.929-19.577-24.3,21.952,3.309,12.2,31.718,5.41Z" transform="translate(-183.942 -175.657)" fill="#eb3f21"/>
    <path id="Path_38" data-name="Path 38" d="M174.5,225.639l12.473-3.383a3.439,3.439,0,0,1,4.211,2.413l3.826,14.108a3.436,3.436,0,0,1-2.414,4.208v0l-12.474,3.383-.011,0a6.1,6.1,0,0,1-7.45-4.279l0-.007-2.438-8.988a6.1,6.1,0,0,1,4.278-7.461Zm12.821.889-11.718,3.178A1.875,1.875,0,0,0,174.293,232l2.421,8.925c.012.038.022.076.031.115a1.877,1.877,0,0,0,2.231,1.279c.038-.011.076-.021.114-.03l11.65-3.16Z" transform="translate(-170.015 -195.748)" fill="#eb3f21"/>
    <path id="Path_39" data-name="Path 39" d="M278.116,193.8a2.1,2.1,0,0,1,1.334-3.985,18.673,18.673,0,0,1,8.136,30,2.1,2.1,0,1,1-3.162-2.767,14.478,14.478,0,0,0-6.309-23.252Z" transform="translate(-218.132 -181.117)" fill="#eb3f21"/>
    <path id="Path_40" data-name="Path 40" d="M283.816,178.172a2.1,2.1,0,0,1,1.236-4.018,27.445,27.445,0,0,1,12.135,44.736,2.1,2.1,0,1,1-3.1-2.832,23.25,23.25,0,0,0-10.275-37.886Z" transform="translate(-220.681 -174.061)" fill="#eb3f21"/>
  </g>
</svg>
